<?xml version="1.0" encoding="utf-8"?>
<!-- Generator: Adobe Illustrator 16.0.0, SVG Export Plug-In . SVG Version: 6.00 Build 0)  -->
<!DOCTYPE svg PUBLIC "-//W3C//DTD SVG 1.1//EN" "http://www.w3.org/Graphics/SVG/1.1/DTD/svg11.dtd">
<svg version="1.1" xmlns="http://www.w3.org/2000/svg" xmlns:xlink="http://www.w3.org/1999/xlink" x="0px" y="0px" width="1092px"
	 height="1092px" viewBox="0 0 1092 1092" enable-background="new 0 0 1092 1092" xml:space="preserve">
<g id="Layer_5">
	<rect fill="#4B4551" width="1092" height="1092"/>
</g>
<g id="Layer_1" display="none">
	
		<rect x="251" y="94" display="inline" fill="none" stroke="#000000" stroke-width="2" stroke-miterlimit="10" width="501" height="813"/>
	
		<rect x="251" y="405" display="inline" fill="none" stroke="#000000" stroke-width="2" stroke-miterlimit="10" width="501" height="502"/>
	
		<rect x="495" y="405" display="inline" fill="none" stroke="#000000" stroke-width="2" stroke-miterlimit="10" width="257" height="502"/>
	
		<rect x="495" y="94" display="inline" fill="none" stroke="#000000" stroke-width="2" stroke-miterlimit="10" width="257" height="311"/>
	
		<rect x="495" y="405" display="inline" fill="none" stroke="#000000" stroke-width="2" stroke-miterlimit="10" width="257" height="311"/>
	
		<rect x="495" y="94" display="inline" fill="none" stroke="#000000" stroke-width="2" stroke-miterlimit="10" width="257" height="156"/>
	
		<rect x="495" y="405" display="inline" fill="none" stroke="#000000" stroke-width="2" stroke-miterlimit="10" width="257" height="155"/>
	
		<rect x="251" y="404" display="inline" fill="none" stroke="#4D4D4D" stroke-width="2" stroke-miterlimit="10" width="121" height="503"/>
</g>
<g id="Layer_2">
	<line fill="none" stroke="#F8F8FF" stroke-width="30" stroke-miterlimit="10" x1="407.609" y1="456.099" x2="754.704" y2="453.5"/>
	<path fill="none" stroke="#F8F8FF" stroke-width="30" stroke-miterlimit="10" d="M407.609,456.099
		c49.202-0.82,140.479-2.415,138.98-157.099c-1.5-155,81.41-154.901,206.02-154.901"/>
	<path fill="none" stroke="#F8F8FF" stroke-width="30" stroke-miterlimit="10" d="M423,454c49.202,0.82,124.088,0.316,122.59,155
		l0.02,295.099"/>
</g>
<g id="Layer_4">
</g>
<g id="Layer_3">
	<g>
		<defs>
			<circle id="SVGID_1_" cx="302.61" cy="454.098" r="82.496"/>
		</defs>
		<clipPath id="SVGID_2_">
			<use xlink:href="#SVGID_1_"  overflow="visible"/>
		</clipPath>
	</g>
	<circle fill="none" stroke="#F8F8FF" stroke-width="20" stroke-miterlimit="10" cx="802.609" cy="144.099" r="50"/>
	<circle fill="none" stroke="#F8F8FF" stroke-width="20" stroke-miterlimit="10" cx="305.609" cy="456.099" r="102"/>
	<circle fill="none" stroke="#F8F8FF" stroke-width="20" stroke-miterlimit="10" cx="545.609" cy="954.099" r="50"/>
	<g>
		<defs>
			<circle id="SVGID_3_" cx="303.61" cy="453.098" r="75.306"/>
		</defs>
		<clipPath id="SVGID_4_">
			<use xlink:href="#SVGID_3_"  overflow="visible"/>
		</clipPath>
	</g>
	<g>
		<defs>
			<circle id="SVGID_5_" cx="303.61" cy="453.098" r="72.995"/>
		</defs>
		<clipPath id="SVGID_6_">
			<use xlink:href="#SVGID_5_"  overflow="visible"/>
		</clipPath>
	</g>
	<circle fill="none" stroke="#F8F8FF" stroke-width="20" stroke-miterlimit="10" cx="802.61" cy="455.098" r="48.907"/>
</g>
<g id="Layer_6">
</g>
</svg>
