<?xml version="1.0" encoding="utf-8"?>
<!-- Generator: Adobe Illustrator 16.0.0, SVG Export Plug-In . SVG Version: 6.00 Build 0)  -->
<!DOCTYPE svg PUBLIC "-//W3C//DTD SVG 1.1//EN" "http://www.w3.org/Graphics/SVG/1.1/DTD/svg11.dtd">
<svg version="1.1" xmlns="http://www.w3.org/2000/svg" xmlns:xlink="http://www.w3.org/1999/xlink" x="0px" y="0px" width="1280px"
	 height="1280px" viewBox="0 0 1280 1280" enable-background="new 0 0 1280 1280" xml:space="preserve">
<g id="Layer_5">
	<rect x="-1" fill="#4B4551" width="1280" height="1280"/>
</g>
<g id="Layer_1" display="none">
	
		<rect x="344" y="195" display="inline" fill="none" stroke="#000000" stroke-width="2" stroke-miterlimit="10" width="501" height="813"/>
	
		<rect x="344" y="506" display="inline" fill="none" stroke="#000000" stroke-width="2" stroke-miterlimit="10" width="501" height="502"/>
	
		<rect x="588" y="506" display="inline" fill="none" stroke="#000000" stroke-width="2" stroke-miterlimit="10" width="257" height="502"/>
	
		<rect x="588" y="195" display="inline" fill="none" stroke="#000000" stroke-width="2" stroke-miterlimit="10" width="257" height="311"/>
	
		<rect x="588" y="506" display="inline" fill="none" stroke="#000000" stroke-width="2" stroke-miterlimit="10" width="257" height="311"/>
	
		<rect x="588" y="195" display="inline" fill="none" stroke="#000000" stroke-width="2" stroke-miterlimit="10" width="257" height="156"/>
	
		<rect x="588" y="506" display="inline" fill="none" stroke="#000000" stroke-width="2" stroke-miterlimit="10" width="257" height="155"/>
	
		<rect x="344" y="505" display="inline" fill="none" stroke="#4D4D4D" stroke-width="2" stroke-miterlimit="10" width="121" height="503"/>
</g>
<g id="Layer_2">
	<line fill="none" stroke="#F8F8FF" stroke-width="30" stroke-miterlimit="10" x1="396.5" y1="429.625" x2="896" y2="429.5"/>
	<path fill="none" stroke="#F8F8FF" stroke-width="30" stroke-miterlimit="10" d="M517,430c49.202-0.82,124.088-0.316,122.59-155
		c-1.5-155,82.998-155,256.41-155"/>
	<path fill="none" stroke="#F8F8FF" stroke-width="30" stroke-miterlimit="10" d="M516,430c49.202,0.82,124.088,0.316,122.59,155
		l0.02,345.099"/>
</g>
<g id="Layer_4">
</g>
<g id="Layer_3">
	<g>
		<defs>
			<circle id="SVGID_1_" cx="395.61" cy="430.098" r="82.496"/>
		</defs>
		<clipPath id="SVGID_2_">
			<use xlink:href="#SVGID_1_"  overflow="visible"/>
		</clipPath>
	</g>
	<circle fill="#FFD400" stroke="#F8F8FF" stroke-width="20" stroke-miterlimit="10" cx="895.609" cy="120.099" r="50"/>
	<circle fill="#618BD6" stroke="#F8F8FF" stroke-width="20" stroke-miterlimit="10" cx="398.609" cy="432.099" r="102"/>
	<circle fill="#E57428" stroke="#F8F8FF" stroke-width="20" stroke-miterlimit="10" cx="638.609" cy="930.099" r="50"/>
	<g>
		<defs>
			<circle id="SVGID_3_" cx="396.61" cy="429.098" r="75.306"/>
		</defs>
		<clipPath id="SVGID_4_">
			<use xlink:href="#SVGID_3_"  overflow="visible"/>
		</clipPath>
	</g>
	<g>
		<defs>
			<circle id="SVGID_5_" cx="396.61" cy="429.098" r="72.995"/>
		</defs>
		<clipPath id="SVGID_6_">
			<use xlink:href="#SVGID_5_"  overflow="visible"/>
		</clipPath>
	</g>
	<circle fill="#618BD6" stroke="#F8F8FF" stroke-width="20" stroke-miterlimit="10" cx="895.61" cy="431.098" r="48.907"/>
	<g>
		<defs>
			<circle id="SVGID_7_" cx="400.609" cy="433.099" r="90"/>
		</defs>
		<clipPath id="SVGID_8_">
			<use xlink:href="#SVGID_7_"  overflow="visible"/>
		</clipPath>
		<path clip-path="url(#SVGID_8_)" fill="#73A84A" d="M475.01,309.486l69.086,108.732c0,0-97.954,32.446-130.605,43.261
			c-30.316,10.042-121.268,40.169-121.268,40.169"/>
	</g>
	<text transform="matrix(1 0 0 1 182.6094 1165)"><tspan x="0" y="0" fill="#FFFFFF" font-family="'IBMPlexSans-SemiBold'" font-size="148">ForkOff</tspan><tspan x="519.027" y="0" fill="#618BD6" font-family="'IBMPlexSans-SemiBold'" font-size="148">.</tspan><tspan x="563.279" y="0" fill="#E57428" font-family="'IBMPlexSans-Italic'" font-size="148">World</tspan></text>
</g>
<g id="Layer_6">
</g>
</svg>
